<?xml version="1.0" standalone="no"?>
<!DOCTYPE svg PUBLIC "-//W3C//DTD SVG 1.1//EN" "http://www.w3.org/Graphics/SVG/1.1/DTD/svg11.dtd" >
<svg xmlns="http://www.w3.org/2000/svg">
<metadata>
<json>
<![CDATA[
{
	"fontFamily": "IconsExplora",
	"majorVersion": 1,
	"minorVersion": 0,
	"fontURL": "https://www.parqueexplora.org/",
	"version": "Version 1.0",
	"fontId": "IconsExplora",
	"psName": "IconsExplora",
	"subFamily": "Regular",
	"fullName": "IconsExplora",
	"description": "Font generated by IcoMoon."
}
]]>
</json>
</metadata>
<defs>
<font id="IconsExplora" horiz-adv-x="1024">
<font-face units-per-em="1024" ascent="960" descent="-64" />
<missing-glyph horiz-adv-x="1024" />
<glyph unicode="&#x20;" horiz-adv-x="512" d="" />
<glyph unicode="&#xe900;" glyph-name="planet-store" data-tags="Tienda-header-planetario" d="M709.842 501.407c-2.867 0-5.786 0.118-8.75 0.323-68.358 2.733-123.455 55.973-129.103 123.279l-0.033 0.492c-0.336 3.2-0.528 6.913-0.528 10.672 0 29.446 11.768 56.143 30.857 75.645l-0.019-0.019c21.909 22.584 52.444 36.693 86.277 36.997h0.057c0.242 0.016 0.526 0.025 0.811 0.025 0.501 0 0.995-0.028 1.481-0.081l-0.060 0.005c33.518-3.179 63.132-17.778 85.372-39.809l-0.011 0.011c23.245-21.287 39.061-50.351 43.314-83.046l0.073-0.687c0.051-0.512 0.092-1.065 0.092-1.603 0.116-1.966 0.182-4.265 0.182-6.58 0-31.865-12.556-60.798-32.991-82.121l0.040 0.042c-18.611-20.648-45.45-33.571-75.306-33.571-0.605 0-1.208 0.005-1.81 0.016l0.091-0.001zM688.85 713.242c-23.855-0.173-45.368-10.059-60.808-25.894l-0.017-0.018c-12.999-13.183-21.027-31.298-21.027-51.288 0-2.754 0.152-5.472 0.449-8.147l-0.030 0.329c4.298-49.851 44.847-88.957 94.943-90.961l0.192-0.006c3.128-0.189 5.202-0.271 7.291-0.271 0.431-0.010 0.938-0.016 1.447-0.016 19.757 0 37.495 8.646 49.636 22.361l0.061 0.070c14.411 14.957 23.288 35.333 23.288 57.782 0 1.671-0.049 3.33-0.146 4.976l0.011-0.227c-3.437 24.529-15.264 45.811-32.436 61.272l-0.091 0.081c-16.303 16.39-38.055 27.345-62.309 29.918l-0.452 0.039zM625.864-52.526c-0.001 0-0.002 0-0.003 0-7.4 0-13.743 4.524-16.415 10.957l-0.043 0.118-78.024 191.488c-14.403-5.806-28.897-11.203-43.249-16.067-15.976-6.539-35.125-12.462-54.88-16.764l-2.377-0.434c-1.065-0.226-2.289-0.356-3.544-0.356-4.77 0-9.102 1.876-12.299 4.93l0.007-0.006-212.808 202.721c-3.396 3.238-5.508 7.797-5.508 12.849 0 1.161 0.112 2.296 0.325 3.395l-0.018-0.112c3.256 17.505 7.987 36.997 14.034 57.958 5.028 15.421 10.537 30.438 16.486 45.158l-200.422 71.88c-6.919 2.539-11.767 9.070-11.767 16.734 0 7.251 4.34 13.488 10.563 16.256l0.113 0.045 383.217 166.876c96.041 99.789 197.248 168.627 300.887 204.631 107.638 38.963 190.5 32.092 245.11-19.912 55.26-53.11 66.002-135.404 31.969-244.603-32.256-106.783-97.459-212.086-193.792-312.832-2.893-2.918-5.74-5.903-8.704-9.078l-142.208-374.385c-2.605-6.69-8.955-11.363-16.408-11.458h-0.012c-0.031-0.002-0.066-0.003-0.102-0.003s-0.072 0.001-0.107 0.003h0.005zM541.107 191.104c0.012 0 0.026 0 0.040 0 2.416 0 4.716-0.493 6.806-1.384l-0.113 0.043c4.431-1.845 7.883-5.297 9.684-9.611l0.044-0.117 67.722-166.216 127.386 335.329c0.845 2.199 2.030 4.088 3.509 5.702l-0.012-0.013c4.152 4.516 8.064 8.658 11.776 12.385 92.191 96.41 154.624 196.915 185.272 298.435 29.727 95.442 22.134 165.519-22.528 208.466-24.801 23.593-56.376 35.103-96.481 35.103-32.256 0-69.985-7.731-112.179-22.989-99.374-34.545-196.736-101.228-289.562-198.287-1.595-1.676-3.512-3.030-5.653-3.965l-0.112-0.044-345.324-150.426 175.898-63.094c6.924-2.544 11.775-9.081 11.775-16.751 0-2.583-0.55-5.037-1.539-7.252l0.045 0.113c-8.428-19.144-16-38.938-22.477-58.834-4.516-15.667-8.31-30.751-11.203-44.646l198.861-189.44c17.172 4.249 31.598 8.96 45.569 14.567l-2.3-0.815c19.794 6.733 39.107 14.141 58.112 22.303 2.069 0.892 4.477 1.415 7.006 1.423h0.003zM216.893 42.9c-0.007 0-0.016 0-0.024 0-4.73 0-9.027 1.852-12.205 4.871l0.008-0.007-67.584 64c-3.426 3.248-5.558 7.831-5.558 12.913 0 9.819 7.96 17.779 17.779 17.779 4.738 0 9.043-1.853 12.229-4.874l-0.008 0.008 67.584-64c3.414-3.247 5.538-7.824 5.538-12.897 0-9.814-7.948-17.771-17.758-17.787h-0.001zM324.762 63.053c-0.010 0-0.022 0-0.034 0-4.756 0-9.075 1.871-12.261 4.916l0.007-0.006-158.853 151.757c-3.392 3.245-5.5 7.807-5.5 12.861 0 9.824 7.964 17.788 17.788 17.788 4.769 0 9.1-1.877 12.295-4.933l-0.007 0.006 158.848-151.752c3.395-3.243 5.505-7.806 5.505-12.861 0-9.818-7.959-17.777-17.777-17.777-0.006 0-0.012 0-0.017 0h0.001z" />
<glyph unicode="&#xe901;" glyph-name="instagram" data-tags="Instagram-footer" d="M506.993 707.917c-0.018 0-0.040 0-0.061 0-143.548 0-259.917-116.369-259.917-259.917s116.369-259.917 259.917-259.917c143.548 0 259.917 116.369 259.917 259.917v0c0 0.131 0 0.286 0 0.441 0 143.305-116.172 259.476-259.476 259.476-0.133 0-0.267 0-0.4 0h0.020zM506.993 279.025c-93.314 0-168.96 75.646-168.96 168.96s75.646 168.96 168.96 168.96c93.314 0 168.96-75.646 168.96-168.96v0c-0.175-93.244-75.716-168.785-168.943-168.96h-0.017zM838.088 718.531c-0.009-33.468-27.142-60.595-60.611-60.595-33.474 0-60.611 27.136-60.611 60.611s27.136 60.611 60.611 60.611v0c0.040 0 0.086 0 0.133 0 33.401 0 60.477-27.077 60.477-60.477 0-0.052 0-0.104 0-0.157v0.008zM1010.202 657.019c-3.845 81.208-22.39 153.144-81.869 212.413-59.254 59.269-131.174 77.824-212.362 81.889-83.681 4.751-334.49 4.751-418.171 0-80.963-3.845-152.883-22.395-212.362-81.664s-77.804-131.2-81.879-212.413c-4.751-83.697-4.751-334.566 0-418.263 3.845-81.208 22.39-153.144 81.869-212.413s131.174-77.824 212.362-81.889c83.681-4.751 334.49-4.751 418.171 0 81.193 3.845 153.088 22.395 212.362 81.889 59.254 59.269 77.824 131.2 81.869 212.413 4.751 83.697 4.751 334.336 0 418.038zM902.093 149.187c-17.764-44.213-52.135-78.591-95.194-95.954l-1.149-0.409c-66.719-26.465-225.029-20.357-298.757-20.357s-232.264-5.883-298.757 20.357c-44.208 17.773-78.579 52.151-95.934 95.214l-0.409 1.149c-26.46 66.734-20.352 225.080-20.352 298.824s-5.878 232.32 20.352 298.824c17.765 44.211 52.136 78.587 95.194 95.949l1.149 0.409c66.719 26.465 225.029 20.357 298.757 20.357s232.264 5.883 298.757-20.357c44.208-17.773 78.579-52.151 95.934-95.214l0.409-1.149c26.46-66.734 20.352-225.080 20.352-298.824s6.108-232.32-20.352-298.819z" />
<glyph unicode="&#xe902;" glyph-name="twitter" data-tags="Twitter-footer" horiz-adv-x="1249" d="M1119.887 702.234c0.794-11.090 0.794-22.18 0.794-33.28 0-338.181-257.398-727.849-727.849-727.849-0.547-0.001-1.194-0.002-1.841-0.002-145.248 0-280.491 42.836-393.785 116.564l2.794-1.705c17.389-2.027 37.537-3.183 57.955-3.183 1.344 0 2.687 0.005 4.029 0.015l-0.206-0.001c0.39-0.001 0.852-0.002 1.314-0.002 119.861 0 230.109 41.162 317.379 110.12l-1.079-0.822c-111.472 2.091-205.365 75.042-238.667 175.598l-0.519 1.81c14.448-2.407 31.166-3.842 48.199-3.957l0.114-0.001c23.954 0.070 47.137 3.241 69.208 9.133l-1.89-0.429c-117.848 24.453-205.148 127.42-205.148 250.777 0 0.103 0 0.205 0 0.308v-0.016 3.169c33.33-18.944 72.926-30.777 115.134-32.455l0.496-0.016c-69.162 46.604-114.047 124.633-114.047 213.145 0 47.53 12.943 92.038 35.497 130.19l-0.651-1.191c126.759-155.148 314.26-256.538 525.682-267.619l1.791-0.075c-3.916 17.569-6.217 37.785-6.333 58.519v0.084c0.142 141.312 114.73 255.812 256.061 255.812 73.54 0 139.84-31.001 186.542-80.648l0.123-0.132c61.211 12.024 115.637 33.482 164.62 63.044l-2.26-1.266c-19.806-60.143-59.579-109.159-111.318-140.332l-1.148-0.642c54.593 6.352 104.385 20.31 150.573 40.896l-3.26-1.298c-35.692-51.526-78.181-95.274-126.802-131.201l-1.5-1.059z" />
<glyph unicode="&#xe903;" glyph-name="facebook" data-tags="Facebook-footer" d="M1018.88 444.913c0 281.713-226.867 509.952-506.88 509.952s-506.88-228.25-506.88-509.952c0-254.531 185.344-465.505 427.679-503.808v356.393h-128.758v147.415h128.763v112.358c0 127.8 75.622 198.395 191.447 198.395 40.524-0.583 79.742-4.18 118.010-10.58l-4.536 0.627v-125.44h-63.928c-62.976 0-82.591-39.316-82.591-79.642v-95.744h140.58l-22.472-147.389h-118.113v-356.378c242.324 38.287 427.679 249.262 427.679 503.793z" />
<glyph unicode="&#xe904;" glyph-name="planet-ticket" data-tags="Boleteria-header-planetario" horiz-adv-x="701" d="M694.728 944.64h-195.584v-16.302c0-81.004-65.666-146.67-146.67-146.67s-146.67 65.666-146.67 146.67v16.302h-195.584v-994.591h195.584v16.302c0 81.004 65.666 146.67 146.67 146.67s146.67-65.666 146.67-146.67v0-16.302h195.584zM662.134 912.051v-570.88h-619.29v570.88h133.939c8.668-90.803 82.673-162.995 175.698-162.995s167.578 72.151 176.22 162.995zM662.134 308.593v-325.949h-133.437c-8.627 90.844-83.159 162.975-176.215 162.975s-167.030-72.166-175.703-162.975h-133.939v325.944z" />
<glyph unicode="&#xe905;" glyph-name="about-b" data-tags="Quienes-somos-header" horiz-adv-x="2084" d="M1324.687-58.875h-888.837c-0.111 0-0.241 0-0.372 0-63.523 0-117.212 42.108-134.676 99.935l-0.258 0.996-284.954 726.103-1.449 6.093c-2.447 9.836-3.852 21.128-3.852 32.748 0 77.951 63.192 141.143 141.143 141.143 0.004 0 0.008 0 0.012 0h1585.535c0.145 0.001 0.316 0.001 0.487 0.001 54.859 0 102.369-31.469 125.461-77.341l0.368-0.806 1.377-2.893 198.963-437.422c8.817-17.9 13.974-38.965 13.974-61.235 0-77.957-63.196-141.153-141.153-141.153-0.001 0-0.001 0-0.002 0h-614.185v178.688h555.817l-165.315 363.474h-1505.71l254.925-649.626h862.72z" />
<glyph unicode="&#xe906;" glyph-name="gift-ticket" data-tags="Regalos-boleterias" horiz-adv-x="1736" d="M1256.55 577.874c-0.005 0-0.010 0-0.015 0-10.819 0-19.589-8.77-19.589-19.589 0-0.007 0-0.014 0-0.022v0.001-220.974c0-10.819 8.77-19.589 19.589-19.589s19.589 8.77 19.589 19.589v0 220.974c0 0.011 0 0.023 0 0.036 0 10.81-8.763 19.574-19.574 19.574 0 0 0 0 0 0v0zM1731.246 639.391v218.752c0 53.443-43.325 96.768-96.768 96.768v0h-1532.611c-53.443 0-96.768-43.325-96.768-96.768v0-218.742c127.273 0 210.35-83.077 210.35-210.35s-83.087-210.396-210.33-210.396v-182.61c0-53.443 43.325-96.768 96.768-96.768v0h1532.59c0.009 0 0.020 0 0.031 0 53.427 0 96.737 43.311 96.737 96.737 0 0.011 0 0.022 0 0.032v-0.002 182.61c-127.273 0-210.35 83.077-210.35 210.355s83.092 210.371 210.35 210.371zM1481.702 429.020c0-135.777 83.011-231.020 210.35-247.112v-145.853c-0.038-31.781-25.793-57.534-57.571-57.569h-358.347v211.046c0 10.819-8.77 19.589-19.589 19.589s-19.589-8.77-19.589-19.589v0-211.005h-1135.104c-31.761 0.052-57.494 25.787-57.544 57.544v145.858c127.386 16.092 210.33 111.329 210.33 247.107s-82.99 231.020-210.35 247.127v181.98c0.038 31.779 25.79 57.531 57.566 57.569h1135.108v-209.582c0-10.819 8.77-19.589 19.589-19.589s19.589 8.77 19.589 19.589v0 209.572h358.339c31.787-0.023 57.551-25.775 57.595-57.555v-181.969c-127.345-16.108-210.35-111.365-210.35-247.142zM941.588 608.205c41.262 23.465 48.128 51.405 48.128 67.072 0 38.364-37.274 68.429-84.869 68.429-76.068 0-148.705-80.113-180.772-120.945-32.102 40.817-104.719 120.945-180.767 120.945-47.616 0-84.869-30.065-84.869-68.429 0-15.626 6.861-43.571 48.128-67.072h-113.869v-156.16h44.728v-281.247h573.317v281.242h44.728v156.16zM904.847 704.486c27.346 0 45.691-15.13 45.691-29.251 0-13.522-15.708-28.436-42.025-39.905-24.376-10.639-68.608-23.040-145.254-26.301 34.273 41.083 91.049 95.457 141.594 95.457zM543.288 704.486c50.529 0 107.32-54.39 141.578-95.488-76.662 3.246-120.863 15.662-145.239 26.301-26.317 11.469-42.025 26.399-42.025 39.905 0 14.188 18.345 29.281 45.691 29.281zM971.571 209.976h-495.012v242.074h495.017zM1016.3 569.032v-77.824h-584.494v77.814z" />
<glyph unicode="&#xe907;" glyph-name="arrow-right" data-tags="right-arrow" horiz-adv-x="1372" d="M1359.785 426.189c-3.155-8.014-7.605-14.876-13.159-20.671l0.021 0.022-442.368-442.368c-11.369-11.369-27.075-18.401-44.424-18.401-34.697 0-62.825 28.128-62.825 62.825 0 17.349 7.032 33.055 18.401 44.424v0l335.985 335.36h-1078.61c-34.554 0-62.566 28.012-62.566 62.566s28.012 62.566 62.566 62.566h1078.63l-335.985 335.36c-11.372 11.37-18.406 27.079-18.406 44.431 0 34.7 28.13 62.83 62.83 62.83 17.348 0 33.054-7.031 44.424-18.399l442.368-442.368c10.94-11.56 17.667-27.205 17.667-44.422 0-8.561-1.663-16.733-4.684-24.211l0.155 0.434z" />
<glyph unicode="&#xe908;" glyph-name="arrow-right-cirlcle" data-tags="right-cirlcle" d="M715.233 457.528c-1.007 2.557-2.427 4.747-4.2 6.597l-141.192 141.192c-3.61 3.519-8.548 5.69-13.994 5.69-11.076 0-20.055-8.979-20.055-20.055 0-5.446 2.171-10.385 5.694-13.998l-0.004 0.004 107.249-107.049h-344.305c-11.028 0-19.968-8.94-19.968-19.968s8.94-19.968 19.968-19.968h344.305l-107.249-107.039c-3.519-3.61-5.69-8.548-5.69-13.994 0-11.076 8.979-20.055 20.055-20.055 5.446 0 10.385 2.171 13.998 5.694l141.195 141.18c3.492 3.69 5.639 8.684 5.639 14.18 0 2.733-0.531 5.341-1.495 7.729l0.049-0.139zM15.872 449.925c0.198-272.87 221.448-493.999 494.346-493.999 203.416 0 378.137 122.861 454.002 298.425l1.233 3.205c24.637 56.777 38.969 122.904 38.969 192.379 0 273.020-221.327 494.347-494.347 494.347-203.545 0-378.358-123.017-454.147-298.759l-1.231-3.208c-24.546-56.477-38.826-122.263-38.826-191.384 0-0.353 0-0.706 0.001-1.059v0.054zM5.12 449.925c0 278.879 226.076 504.955 504.955 504.955s504.955-226.076 504.955-504.955c0-278.879-226.076-504.955-504.955-504.955v0c-278.879 0-504.955 226.076-504.955 504.955v0z" />
<glyph unicode="&#xe909;" glyph-name="search" data-tags="search" d="M983.491-23.491c-10.136-10.369-24.263-16.798-39.892-16.798s-29.757 6.43-39.882 16.788l-0.010 0.011-209.946 209.956c-69.393-53.706-157.521-86.268-253.235-86.784h-0.118c-0.17 0-0.372 0-0.574 0-231.603 0-419.354 187.751-419.354 419.354 0 0.2 0 0.4 0 0.6v-0.031c0 0.167 0 0.365 0 0.564 0 231.603 187.751 419.354 419.354 419.354 0.198 0 0.396 0 0.594 0h-0.031c0.167 0 0.365 0 0.564 0 231.603 0 419.354-187.751 419.354-419.354 0-0.198 0-0.396 0-0.594v0.031c0.001-0.248 0.001-0.542 0.001-0.836 0-95.62-32.669-183.61-87.453-253.418l0.674 0.891 209.961-209.961c10.361-10.135 16.786-24.259 16.786-39.882 0-15.626-6.426-29.752-16.781-39.877l-0.010-0.010zM440.397 855.552c-0.244 0.001-0.532 0.001-0.82 0.001-185.087 0-335.13-150.043-335.13-335.13 0-0.289 0-0.577 0.001-0.865v0.045c-0.001-0.239-0.001-0.522-0.001-0.805 0-185.087 150.043-335.13 335.13-335.13 0.283 0 0.566 0 0.849 0.001h-0.044c0.239-0.001 0.522-0.001 0.805-0.001 185.087 0 335.13 150.043 335.13 335.13 0 0.283 0 0.566-0.001 0.849v-0.044c0.001 0.244 0.001 0.532 0.001 0.82 0 185.087-150.043 335.13-335.13 335.13-0.278 0-0.555 0-0.833-0.001h0.043z" />
<glyph unicode="&#xe90a;" glyph-name="store" data-tags="Tienda-header" d="M1008.64 653.46v116.818c-0.412 3.549-1.157 6.772-2.217 9.849l0.098-0.326c0.072 0.478 0.113 1.031 0.113 1.592s-0.041 1.114-0.12 1.654l0.007-0.061c-1.798 3.795-4.041 7.053-6.72 9.895l0.018-0.019-141.169 141.169c-6.412 6.544-15.34 10.6-25.216 10.6-0.439 0-0.877-0.008-1.312-0.024l0.063 0.002h-635.249c-0.055 0-0.119 0-0.184 0-9.702 0-18.491-3.911-24.876-10.243l-141.156-141.151c-2.567-2.967-4.802-6.334-6.58-9.964l-0.122-0.276v-3.185c-1.402-2.721-2.609-5.89-3.458-9.204l-0.069-0.32v-116.808c0.072-53.34 27.977-100.146 69.967-126.684l0.617-0.364v-393.487c-0.002 0-0.003 0-0.005 0-19.488 0-35.287-15.799-35.287-35.287 0-0.002 0-0.004 0-0.005v0-105.856c0-0.012 0-0.027 0-0.041 0-19.487 15.796-35.284 35.282-35.287h846.992c0.002 0 0.003 0 0.005 0 19.488 0 35.287 15.799 35.287 35.287 0 0.002 0 0.004 0 0.005v0 105.892c0 0.002 0 0.003 0 0.005 0 19.488-15.799 35.287-35.287 35.287-0.002 0-0.004 0-0.005 0v0 393.487c42.607 26.901 70.512 73.708 70.584 127.037v0.011zM938.056 653.46c0-0.009 0-0.019 0-0.029 0-32.905-20.014-61.135-48.533-73.181l-0.521-0.196c-8.799-3.736-19.032-5.907-29.772-5.907-3.44 0-6.829 0.223-10.152 0.655l0.392-0.042-11.295 2.12c-6.713 1.787-12.58 4.2-18.036 7.26l0.387-0.2-8.115 4.941-8.115 6.702c-4.64 4.351-8.717 9.211-12.17 14.515l-0.185 0.303c-4.672 7.617-8.325 16.461-10.474 25.877l-0.114 0.593c-1.35 4.718-2.126 10.137-2.126 15.737 0 0.3 0.002 0.599 0.007 0.897l-0.001-0.045v79.406h158.812zM708.68 653.46c0-0.084 0.001-0.184 0.001-0.284 0-6.433-0.903-12.654-2.59-18.545l0.116 0.474c-8.23-35.547-39.621-61.64-77.107-61.64s-68.878 26.093-77.003 61.107l-0.104 0.533c-1.35 4.718-2.126 10.137-2.126 15.737 0 0.3 0.002 0.599 0.007 0.897l-0.001-0.045v81.172h158.812zM479.304 653.46c0-0.084 0.001-0.183 0.001-0.282 0-6.434-0.903-12.656-2.59-18.548l0.116 0.475c-8.234-35.544-39.625-61.634-77.11-61.634s-68.875 26.089-77.005 61.1l-0.104 0.533c-1.35 4.719-2.126 10.14-2.126 15.741 0 0.298 0.002 0.595 0.007 0.892l-0.001-0.045v81.172h158.812zM249.928 653.46c0-0.063 0-0.138 0-0.212 0-6.579-0.903-12.946-2.591-18.986l0.118 0.495c-2.27-8.836-5.533-16.59-9.752-23.713l0.228 0.417c-14.858-22.338-39.925-36.859-68.383-36.859-10.565 0-20.662 2.001-29.934 5.646l0.556-0.192c-29.040 12.242-49.055 40.472-49.055 73.377 0 0.010 0 0.020 0 0.031v-0.002 79.411h158.74zM211.461 874.040h606.254l70.605-70.579h-747.52zM902.758 27.049h-776.412v35.292h776.412zM161.638 132.925v371.267h8.822c0.434-0.005 0.947-0.007 1.461-0.007 45.349 0 85.986 20.173 113.426 52.036l0.164 0.195c27.388-33.152 68.505-54.119 114.519-54.119s87.131 20.967 114.318 53.869l0.201 0.25c27.388-33.152 68.505-54.119 114.519-54.119s87.131 20.967 114.318 53.869l0.201 0.25c4.068-4.841 8.221-9.216 12.622-13.33l0.086-0.079 13.409-11.295c4.941-3.528 9.533-6.349 15.529-9.876v0c10.161-5.932 21.915-10.774 34.348-13.914l0.945-0.202c3.331-1.213 7.258-2.2 11.315-2.787l0.328-0.039h7.060c3.012-0.252 6.52-0.396 10.061-0.396s7.048 0.144 10.517 0.426l-0.456-0.030h8.822v-371.973zM761.6 450.55c-0.002 0-0.003 0-0.005 0-19.488 0-35.287-15.799-35.287-35.287 0-0.002 0-0.004 0-0.005v0-105.876h-423.496v105.876c0 19.491-15.801 35.292-35.292 35.292s-35.292-15.801-35.292-35.292v-141.164c0-0.002 0-0.003 0-0.005 0-19.488 15.799-35.287 35.287-35.287 0.002 0 0.004 0 0.005 0h494.080c0.002 0 0.003 0 0.005 0 19.488 0 35.287 15.799 35.287 35.287 0 0.002 0 0.004 0 0.005v0 141.164c0 0.002 0 0.003 0 0.005 0 19.488-15.799 35.287-35.287 35.287-0.002 0-0.004 0-0.005 0v0z" />
<glyph unicode="&#xe90b;" glyph-name="about" data-tags="todoexplora-boleteria" horiz-adv-x="2166" d="M1347.517-52.419h-912.896c-0.246-0.002-0.537-0.003-0.828-0.003-52.071 0-96.066 34.575-110.281 82.020l-0.21 0.815-0.415 1.275-303.319 771.128-0.983 4.163c-1.998 8.055-3.144 17.303-3.144 26.819 0 64.045 51.918 115.963 115.963 115.963 0.063 0 0.126 0 0.189 0h1689.462c0.128 0.001 0.278 0.001 0.429 0.001 44.991 0 83.985-25.677 103.126-63.177l0.303-0.655 213.443-468.081c7.203-14.667 11.416-31.922 11.416-50.161 0-64.013-51.893-115.907-115.907-115.907-0.072 0-0.143 0-0.215 0h-620.277v121.641h611.272l-207.36 454.697h-1676.703l298.557-758.892h908.375v-121.646z" />
<glyph unicode="&#xe90c;" glyph-name="currency-circle" data-tags="Total-tiquetes-taquilla" d="M512.732 954.88c-0.174 0-0.381 0-0.587 0-280.669 0-508.196-227.527-508.196-508.196s227.527-508.196 508.196-508.196c280.669 0 508.196 227.527 508.196 508.196 0 140.333-56.881 267.382-148.845 359.347v0c-91.796 91.885-218.629 148.753-358.745 148.849h-0.019zM512.732-3.958c-0.157 0-0.342 0-0.528 0-249.488 0-451.738 202.25-451.738 451.738s202.25 451.738 451.738 451.738c249.488 0 451.738-202.25 451.738-451.738 0-124.744-50.562-237.678-132.31-319.426v0c-81.595-81.678-194.336-132.228-318.884-132.311h-0.015zM399.923 560.077c0-46.193 45.681-63.227 120.899-85.78 71.767-21.555 161.111-48.343 161.111-139.832 0-78.060-67.118-123.013-141-132.127v-37.079h-56.407v37.089c-31.672 3.344-60.343 13.822-85.146 29.791l0.769-0.463c-34.238 21.769-56.628 59.505-56.628 102.471 0 0.112 0 0.224 0 0.336v-0.017h56.397c0-53.304 58.46-77.548 112.809-77.548s112.809 24.259 112.809 77.548c0 46.193-45.681 63.227-120.899 85.78-71.767 21.555-161.111 48.343-161.111 139.832 0 78.060 67.118 123.013 141 132.127v37.079h56.397v-37.059c73.887-9.114 141-54.057 141-132.127h-56.387c0.001 0.109 0.001 0.239 0.001 0.368 0 23.448-12.505 43.976-31.21 55.278l-0.289 0.162c-22.172 13.665-49.040 21.76-77.798 21.76-1.233 0-2.463-0.015-3.689-0.044l0.182 0.003c-54.339 0-112.809-24.259-112.809-77.548z" />
<glyph unicode="&#xe90d;" glyph-name="arrow-up" data-tags="up-arrow" horiz-adv-x="764" d="M398.367 948.854c5.981-2.355 11.101-5.675 15.426-9.82l-0.017 0.016 330.125-330.125c8.484-8.484 13.732-20.205 13.732-33.152 0-25.893-20.991-46.884-46.884-46.884-12.947 0-24.668 5.248-33.152 13.732v0l-250.269 250.735v-804.933c0-25.787-20.904-46.691-46.691-46.691s-46.691 20.904-46.691 46.691v804.948l-250.269-250.735c-8.485-8.487-20.209-13.736-33.158-13.736-25.896 0-46.888 20.992-46.888 46.888 0 12.946 5.247 24.667 13.73 33.152l330.125 330.125c8.627 8.164 20.302 13.184 33.15 13.184 6.388 0 12.487-1.241 18.068-3.495l-0.324 0.116z" />
<glyph unicode="&#xe90e;" glyph-name="arrow-up-cirlcle" data-tags="up-cirlcle" d="M502.472 655.084c-2.557-1.007-4.747-2.427-6.597-4.2l-141.192-141.192c-3.519-3.61-5.69-8.548-5.69-13.994 0-11.076 8.979-20.055 20.055-20.055 5.446 0 10.385 2.171 13.998 5.694l-0.004-0.004 107.049 107.249v-344.305c0-11.028 8.94-19.968 19.968-19.968s19.968 8.94 19.968 19.968v344.305l107.039-107.249c3.61-3.519 8.548-5.69 13.994-5.69 11.076 0 20.055 8.979 20.055 20.055 0 5.446-2.171 10.385-5.694 13.998l-141.18 141.195c-3.69 3.492-8.684 5.639-14.18 5.639-2.733 0-5.341-0.531-7.729-1.495l0.139 0.049zM510.075-44.278c272.87 0.198 493.999 221.448 493.999 494.346 0 203.416-122.861 378.137-298.425 454.002l-3.205 1.233c-56.777 24.637-122.904 38.969-192.379 38.969-273.020 0-494.347-221.327-494.347-494.347 0-203.545 123.017-378.358 298.759-454.147l3.208-1.231c56.477-24.546 122.263-38.826 191.384-38.826 0.353 0 0.706 0 1.059 0.001h-0.054zM510.075-55.030c-278.879 0-504.955 226.076-504.955 504.955s226.076 504.955 504.955 504.955c278.879 0 504.955-226.076 504.955-504.955v0c0-278.879-226.076-504.955-504.955-504.955v0z" />
<glyph unicode="&#xe90f;" glyph-name="location" data-tags="Ver-mapa-visitanos" horiz-adv-x="783" d="M434.949-26.040l21.857 23.905q15.77 17.444 31.334 35.19l39.337 45.798c12.252 14.561 24.494 29.491 36.352 44.349l17.132 21.755c129.024 166.001 191.744 299.080 191.744 406.774 0.005 222.295-171.018 403.144-381.23 403.144h-4.209c-208.292-2.386-377.027-182.308-377.027-403.118 0-73.272 28.851-157.42 88.197-257.198l45.676 35.517c-50.765 86.687-76.529 161.224-76.529 221.594 0 190.643 145.275 345.754 323.845 345.754s323.845-155.136 323.845-345.754c0-83.149-48.415-192.113-143.913-323.85l-30.044-40.172q-11.868-15.437-24.474-31.171l-35.031-42.691c-2.872-3.441-5.78-6.866-8.704-10.317l-0.573-0.676-38.589-44.349-66.447-73.595 40.607-40.617c3.461 3.83 7.834 8.704 12.058 13.368 6.886 7.639 13.358 14.817 14.781 16.384zM472.115 548.444c0 0.006 0 0.013 0 0.020 0 44.548-36.113 80.66-80.66 80.66s-80.66-36.113-80.66-80.66c0-44.542 36.104-80.652 80.644-80.66h0.001c0.005 0 0.010 0 0.015 0 44.54 0 80.649 36.101 80.66 80.639v0.001z" />
<glyph unicode="&#xe910;" glyph-name="user" data-tags="Asistentes-registrados-taquilla" horiz-adv-x="824" d="M5.12 185.713v-161.925c0.317-44.584 36.374-80.641 80.927-80.957h655.288c44.586 0.314 80.646 36.372 80.962 80.927v161.955c-0.204 129.863-105.422 235.083-235.265 235.29h-346.644c-129.67-0.676-234.604-105.618-235.269-235.226v-0.064zM240.404 369.132h346.624c101.94-0.14 184.539-82.751 184.658-184.682v-161.931c-0.233-16.674-13.688-30.128-30.339-30.361h-655.285c-16.674 0.233-30.128 13.688-30.361 30.339v163.212c0.22 101.348 82.429 183.421 183.808 183.421 0.312 0 0.623-0.001 0.934-0.002h-0.048zM413.706 489.308c127.15 0 230.226 103.076 230.226 230.226s-103.076 230.226-230.226 230.226c-127.15 0-230.226-103.076-230.226-230.226v0c0.478-126.957 103.268-229.748 230.18-230.226h0.046zM413.706 900.444c0.002 0 0.003 0 0.005 0 99.207 0 179.63-80.423 179.63-179.63s-80.423-179.63-179.63-179.63c-99.207 0-179.63 80.423-179.63 179.63v0c0.403 99.039 80.585 179.216 179.587 179.609h0.038z" />
<glyph unicode="&#xe911;" glyph-name="city" data-tags="atracciones-turisticas-boleteria" d="M494.971-43.653v0l-24.32 1.070v770.586l-8.192 1.536c-34.847-90.885-60.928-143.99-76.718-172.544-21.506-38.18-45.807-71.158-73.586-100.841l0.268 0.289c-16.981-18.407-34.91-35.271-53.968-50.802l-2.557-2.022-0.364-374.917-24.335 15.652 0.384 365.435c0 0.002 0 0.004 0 0.006 0 4.067 1.964 7.676 4.995 9.929l0.033 0.023c51.452 41.035 94.151 90.532 126.556 146.715l1.326 2.492c51.2 92.872 106.266 254.551 106.803 256.143 1.654 4.875 6.19 8.321 11.531 8.321 6.71 0 12.15-5.44 12.15-12.15 0-0.042 0-0.084-0.001-0.125v0.006zM539.976-43.51v0 53.371h-32.768v46.188h32.768v74.040h-32.768v46.182h32.768v74.020h-32.768v46.188h32.768v196.557c0.004 5.975 4.322 10.94 10.008 11.95l0.073 0.011c0.63 0.124 1.355 0.195 2.096 0.195 0.023 0 0.046 0 0.069 0h-0.004c5.189-0.019 9.61-3.289 11.334-7.878l0.028-0.084c0.128-0.348 13.491-36.413 32.471-79.068 25.262-56.684 47.985-97.541 67.553-121.426 26.481-31.964 55.807-60.022 88.055-84.421l1.31-0.95c13.119-10.154 27.903-20.054 43.35-28.932l1.906-1.010h0.041c3.893-2.073 6.497-6.105 6.497-10.746 0-0.002 0-0.005 0-0.007v0-118.63l-24.335-16.558v128l-2.048 1.244c-51.883 32.018-96.031 70.742-132.896 115.669l-0.736 0.924c-26.573 32.502-53.985 88.612-72.31 129.966l-8.1-1.71v-451.2l-24.325-1.864zM512-58.88c-279.942 0-506.88 226.938-506.88 506.88s226.938 506.88 506.88 506.88c279.942 0 506.88-226.938 506.88-506.88v0c-0.329-279.81-227.070-506.551-506.848-506.88h-0.032zM512 934.001c-268.407-0.009-485.99-217.598-485.99-486.006 0-268.414 217.592-486.006 486.006-486.006s486.006 217.592 486.006 486.006c0 0.002 0 0.004 0 0.005v0c-0.32 268.289-217.73 485.692-485.991 486.001h-0.030zM702.971 131.958h-83.789c-1.697 0-3.072 1.375-3.072 3.072v0 40.044c0 1.697 1.375 3.072 3.072 3.072v0h83.789c1.697 0 3.072-1.375 3.072-3.072v0-40.090c-0.026-1.677-1.391-3.026-3.072-3.026 0 0 0 0 0 0v0z" />
<glyph unicode="&#xe912;" glyph-name="ticket" data-tags="boleteria-header" d="M10.24 313.421l125.778-125.788 22.195 22.195c15.15 15.152 36.081 24.524 59.2 24.524 46.235 0 83.716-37.481 83.716-83.716 0-23.116-9.369-44.043-24.516-59.192l-22.195-22.195 125.788-125.788 636.339 636.329-125.788 125.798-22.195-22.195c-15.114-14.944-35.903-24.175-58.848-24.175-46.233 0-83.712 37.479-83.712 83.712 0 22.945 9.231 43.734 24.183 58.856l22.187 22.187-125.793 125.788zM99.036 313.421l362.568 362.568 281.17-281.17-362.568-362.568-39.772 39.772c14.571 22.336 23.237 49.678 23.237 79.044 0 80.666-65.393 146.058-146.058 146.058-29.362 0-56.701-8.664-79.599-23.575l0.564 0.344-39.542 39.542zM506.004 720.384l140.585 140.585 39.542-39.542c-14.57-22.336-23.237-49.678-23.237-79.044 0-80.666 65.393-146.058 146.058-146.058 29.368 0 56.712 8.668 79.613 23.585l-0.563-0.344 39.772-39.777-140.595-140.58z" />
<glyph unicode="&#xe913;" glyph-name="certificate-excellence" data-tags="Certificado de excelencia" horiz-adv-x="1239" d="M1009.213 522.132c-4.541-6.374-8.878-12.032-12.764-17.981-10.428-15.339-18.75-33.145-23.999-52.225l-0.295-1.259c-0.309-0.991-0.486-2.13-0.486-3.31 0-2.717 0.942-5.214 2.516-7.183l-0.018 0.023c80.471-115.758 10.312-280.064-128.896-301.056-71.168-10.752-131.005 11.51-179.282 64.84l-3.768 4.168-42.691-59.853-43.146 60.18c-2.109-2.278-3.369-3.584-4.608-4.956-37.028-41.431-83.072-64.471-138.793-66.785-2.844-0.15-6.174-0.235-9.524-0.235-93.507 0-171.497 66.439-189.338 154.685l-0.209 1.239c-2.637 11.825-4.149 25.407-4.149 39.341 0 40.397 12.7 77.827 34.325 108.517l-0.399-0.597c1.693 2.2 2.713 4.994 2.713 8.027 0 1.429-0.226 2.805-0.645 4.094l0.026-0.094c-7.228 25.062-18.643 46.863-33.582 65.748l0.302-0.396q-1.536 2.048-3.072 4.096c-0.072 0.102 0.036 0.338 0.159 1.275h5.811q56.013 0 112.026 0.061c0.205-0.011 0.444-0.017 0.686-0.017 2.294 0 4.455 0.575 6.344 1.589l-0.072-0.035c42.561 27.392 92.412 47.854 145.839 58.345l2.703 0.442c91.054 18.606 181.432 16.476 270.725-10.578 38.927-11.846 72.843-27.896 103.795-48.108l-1.538 0.942c2.546-1.582 5.629-2.531 8.932-2.56h0.008c39.424-0.164 78.848-0.108 118.272-0.123 1.802 0 3.584-0.159 6.052-0.276zM425.17 486.994c-0.069 0-0.151 0-0.233 0-86.307 0-156.273-69.966-156.273-156.273 0-86.225 69.833-156.14 156.027-156.273h0.013c85.396 0.123 156.283 70.093 156.375 154.342 0.005 0.481 0.008 1.050 0.008 1.619 0 86.246-69.725 156.207-155.881 156.589h-0.036zM970.086 330.465c-0.257 85.565-68.917 155.009-154.153 156.532l-0.143 0.002c-86.359 0.512-157.307-68.639-158.756-152.576-0.022-0.975-0.034-2.123-0.034-3.275 0-86.457 70.087-156.544 156.544-156.544 86.21 0 156.143 69.687 156.542 155.803v0.038zM803.492 525.599c-52.758 22.956-114.216 36.311-178.793 36.311-2.843 0-5.681-0.026-8.511-0.077l0.425 0.006c-0.927 0.006-2.023 0.010-3.119 0.010-66.216 0-129.409-12.947-187.184-36.447l3.326 1.196c108.385-12.288 171.469-71.501 190.029-176.369 8.632 94.275 86.799 169.8 183.849 175.375zM516.987 331.075c0-0.017 0-0.036 0-0.056 0-52.242-42.35-94.592-94.592-94.592s-94.592 42.35-94.592 94.592c0 52.242 42.35 94.592 94.592 94.592 0.351 0 0.702-0.002 1.052-0.006h-0.053c51.789-0.461 93.594-42.55 93.594-94.404 0-0.044 0-0.089 0-0.133v0.007zM422.267 266.26c35.85 0.059 64.89 29.135 64.89 64.993 0 35.895-29.098 64.993-64.993 64.993-35.758 0-64.771-28.877-64.992-64.583v-0.021c0-0.049 0-0.106 0-0.164 0-35.969 29.118-65.137 65.068-65.218h0.008zM813.604 426.168c52.131-0.105 94.35-42.39 94.35-94.535 0-52.211-42.325-94.536-94.536-94.536s-94.536 42.325-94.536 94.536c0 0.157 0 0.313 0.001 0.469v-0.024c0.151 51.997 42.338 94.091 94.356 94.091 0.128 0 0.256 0 0.384-0.001h-0.020zM748.283 331.694c0.053-35.976 29.23-65.121 65.213-65.121 36.016 0 65.213 29.197 65.213 65.213s-29.197 65.213-65.213 65.213c-0.112 0-0.223 0-0.335-0.001h0.017c-35.887-0.215-64.896-29.357-64.896-65.274 0-0.011 0-0.022 0-0.034v0.002zM449.080 330.793c-0.242-17.271-14.3-31.179-31.606-31.179-17.457 0-31.609 14.152-31.609 31.609 0 0.151 0.001 0.302 0.003 0.453v-0.023c0.242 17.271 14.3 31.179 31.606 31.179 17.457 0 31.609-14.152 31.609-31.609 0-0.151-0.001-0.302-0.003-0.453v0.023zM808.847 300.626c-17.129 0.032-31.002 13.925-31.002 31.058 0 17.153 13.905 31.058 31.058 31.058s31.058-13.905 31.058-31.058c0-0.013 0-0.025 0-0.038v0.002c0-0.008 0-0.017 0-0.026 0-17.119-13.878-30.996-30.996-30.996-0.041 0-0.083 0-0.124 0h0.006zM150.303-55.88q17.367 12.518 35.84 24.11c-85.887 99.39-138.207 229.866-138.207 372.562 0 315.498 255.761 571.259 571.259 571.259 157.812 0 300.678-63.991 404.065-167.442l0.003-0.003c103.374-103.384 167.312-246.203 167.312-403.954 0-142.629-52.266-273.050-138.691-373.156l0.619 0.733q18.483-11.576 35.84-24.11c90.117 106.196 144.917 244.827 144.917 396.258 0 339.222-274.994 614.216-614.216 614.216-252.766 0-469.871-152.683-564.117-370.853l-1.531-3.982c-30.667-70.552-48.508-152.733-48.508-239.080 0-151.608 54.999-290.371 146.133-397.424l-0.719 0.866z" />
<glyph unicode="&#xe914;" glyph-name="ticket-pack" data-tags="Combo-flujo-boletas-taquilla" horiz-adv-x="758" d="M378.691 92.196c80.896-0.113 146.842-54.103 146.995-120.32v-21.555l226.084 0.015v999.424h-226.074v-21.504c-0.072-32.256-15.452-62.464-43.305-85.212-27.666-21.929-63.079-35.18-101.587-35.18-0.918 0-1.833 0.008-2.747 0.023l0.138-0.002c-80.896 0.113-146.857 54.103-146.995 120.346v21.53h-226.074v-999.424h226.043v21.504c0.138 66.499 66.319 120.474 147.502 120.371zM85.734-6.656c-15.478 0-28.068 10.307-28.068 22.989v867.41c0 12.682 12.59 22.989 28.068 22.989h94.766l3.584-13.578c23.281-87.859 129.536-143.821 236.846-124.759 74.020 13.153 133.396 60.534 151.286 120.786 4.037 10.373 13.943 17.59 25.536 17.59 0.545 0 1.086-0.016 1.623-0.047l-0.074 0.003h71.89c15.462 0 28.022-10.307 28.022-22.989l-0.041-633.196c0-0.113 0.041-0.22 0.041-0.343v-233.815c0-12.682-12.59-22.989-28.068-22.989h-94.239l-3.584 13.578c-11.295 42.557-42.153 78.966-86.892 102.518-31.241 16.418-68.26 26.053-107.529 26.053-15.010 0-29.691-1.408-43.918-4.098l1.462 0.23c-76.032-13.522-135.823-62.464-152.34-124.739l-3.584-13.578z" />
<glyph unicode="&#xe915;" glyph-name="location-b" data-tags="Como-llegar-header" horiz-adv-x="855" d="M427.11 954.88c232.948-0.274 421.716-189.041 421.99-421.964v-0.027c0-312.509-378.199-568.238-394.296-578.97-7.782-5.253-17.372-8.385-27.694-8.385s-19.912 3.132-27.872 8.498l0.178-0.113c-16.097 10.752-394.296 266.455-394.296 578.97 0.274 232.948 189.041 421.716 421.964 421.99h0.027zM427.11 56.986c82.719 62.126 322.14 260.608 322.14 475.904 0 177.916-144.229 322.145-322.145 322.145s-322.145-144.229-322.145-322.145v0c0-215.306 239.401-413.747 322.156-475.904zM427.11 706.836c96.068 0 173.947-77.879 173.947-173.947s-77.879-173.947-173.947-173.947c-96.068 0-173.947 77.879-173.947 173.947v0c0.114 96.023 77.925 173.833 173.936 173.947h0.011zM427.11 458.793c40.918 0.006 74.086 33.178 74.086 74.097 0 40.922-33.174 74.097-74.097 74.097s-74.097-33.174-74.097-74.097v0c0.047-40.907 33.199-74.056 74.103-74.097h0.004z" />
<glyph unicode="&#xe916;" glyph-name="arrow-down" data-tags="down-arrow" horiz-adv-x="764" d="M363.073-54.765c-5.981 2.355-11.101 5.675-15.426 9.82l0.017-0.016-330.125 330.125c-8.484 8.484-13.732 20.205-13.732 33.152 0 25.893 20.991 46.884 46.884 46.884 12.947 0 24.668-5.248 33.152-13.732v0l250.269-250.735v804.933c0 25.787 20.904 46.691 46.691 46.691s46.691-20.904 46.691-46.691v-804.948l250.269 250.735c8.485 8.487 20.209 13.736 33.158 13.736 25.896 0 46.888-20.992 46.888-46.888 0-12.946-5.247-24.667-13.73-33.152l-330.125-330.125c-8.627-8.164-20.302-13.184-33.15-13.184-6.388 0-12.487 1.241-18.068 3.495l0.324-0.116z" />
<glyph unicode="&#xe917;" glyph-name="arrow-down-cirlcle" data-tags="down-cirlcle" d="M517.678 244.767c2.557 1.007 4.747 2.427 6.597 4.2l141.192 141.192c3.519 3.61 5.69 8.548 5.69 13.994 0 11.076-8.979 20.055-20.055 20.055-5.446 0-10.385-2.171-13.998-5.694l0.004 0.004-107.049-107.249v344.305c0 11.028-8.94 19.968-19.968 19.968s-19.968-8.94-19.968-19.968v-344.305l-107.039 107.249c-3.61 3.519-8.548 5.69-13.994 5.69-11.076 0-20.055-8.979-20.055-20.055 0-5.446 2.171-10.385 5.694-13.998l141.18-141.195c3.69-3.492 8.684-5.639 14.18-5.639 2.733 0 5.341 0.531 7.729 1.495l-0.139-0.049zM510.075 944.128c-272.87-0.198-493.999-221.448-493.999-494.346 0-203.416 122.861-378.137 298.425-454.002l3.205-1.233c56.777-24.637 122.904-38.969 192.379-38.969 273.020 0 494.347 221.327 494.347 494.347 0 203.545-123.017 378.358-298.759 454.147l-3.208 1.231c-56.477 24.546-122.263 38.826-191.384 38.826-0.353 0-0.706 0-1.059-0.001h0.054zM510.075 954.88c278.879 0 504.955-226.076 504.955-504.955s-226.076-504.955-504.955-504.955c-278.879 0-504.955 226.076-504.955 504.955v0c0 278.879 226.076 504.955 504.955 504.955v0z" />
<glyph unicode="&#xe918;" glyph-name="clock-b" data-tags="Horarios-y-tarifas-header" d="M512 954.88c279.942 0 506.88-226.938 506.88-506.88s-226.938-506.88-506.88-506.88c-279.942 0-506.88 226.938-506.88 506.88v0c0.326 279.811 227.069 506.554 506.849 506.88h0.031zM512 41.411c224.553 0 406.589 182.036 406.589 406.589s-182.036 406.589-406.589 406.589c-224.553 0-406.589-182.036-406.589-406.589v0c0.256-224.45 182.139-406.333 406.565-406.589h0.025zM694.656 306.499c-8.157 0.005-15.854 1.964-22.652 5.435l0.283-0.131-182.712 91.351c-16.565 8.416-27.718 25.328-27.72 44.846v0 274.043c0 27.694 22.451 50.145 50.145 50.145s50.145-22.451 50.145-50.145v0-243.052l154.972-77.491c16.524-8.439 27.641-25.337 27.641-44.831 0-27.687-22.425-50.137-50.104-50.176h-0.004z" />
<glyph unicode="&#xe919;" glyph-name="users" data-tags="Horarios-y-tarifas-visitanos ÔÇô 1" horiz-adv-x="1551" d="M1098.972 428.667c-0.002 0-0.003 0-0.005 0-143.893 0-260.541 116.648-260.541 260.541s116.648 260.541 260.541 260.541c143.893 0 260.541-116.648 260.541-260.541 0-0.002 0-0.004 0-0.006v0.001c0-0.003 0-0.007 0-0.010 0-143.885-116.641-260.526-260.526-260.526-0.004 0-0.007 0-0.011 0v0zM1098.972 480.768c0.002 0 0.003 0 0.005 0 115.118 0 208.44 93.322 208.44 208.44s-93.322 208.44-208.44 208.44c-115.118 0-208.44-93.322-208.44-208.44 0-0.002 0-0.004 0-0.005v0c0.003-115.114 93.321-208.432 208.435-208.435v0zM447.621 428.677c-0.002 0-0.003 0-0.005 0-143.893 0-260.541 116.648-260.541 260.541s116.648 260.541 260.541 260.541c143.893 0 260.541-116.648 260.541-260.541 0-0.002 0-0.004 0-0.006v0.001c0-0.003 0-0.007 0-0.010 0-143.885-116.641-260.526-260.526-260.526-0.004 0-0.007 0-0.011 0v0zM447.621 480.778c0.002 0 0.003 0 0.005 0 115.118 0 208.44 93.322 208.44 208.44s-93.322 208.44-208.44 208.44c-115.118 0-208.44-93.322-208.44-208.44 0-0.002 0-0.004 0-0.005v0c0-0.002 0-0.003 0-0.005 0-115.117 93.319-208.437 208.435-208.44v0zM806.636 192.891c-81.381 111.822-211.823 183.678-359.048 183.678-238.802 0-433.449-189.049-442.443-425.65l-0.025-0.818h52.101c8.955 208.693 180.315 374.491 390.4 374.491s381.445-165.798 390.372-373.684l0.028-0.807h52.101c-3.343 91.571-34.132 175.343-84.325 244.038l0.869-1.248zM1098.977 376.561c-0.166 0-0.362 0-0.558 0-111.997 0-214.244-41.747-292.028-110.529l0.47 0.408q8.218-8.049 16.020-16.497c6.61-7.168 12.918-14.607 19.026-22.2 68.33 60.063 158.519 96.714 257.267 96.714 209.994 0 381.277-165.742 390.17-373.547l0.027-0.804h52.101c-9.085 237.4-203.713 426.414-442.497 426.455h-0.004z" />
<glyph unicode="&#xe91a;" glyph-name="percentage" data-tags="Horarios-y-tarifas-visitanos ÔÇô 2" horiz-adv-x="1055" d="M8.33-7.281l954.797 954.797 44.35-44.35-954.797-954.797-44.35 44.35zM204.037 553.912c109.823 0.014 198.846 89.046 198.846 198.871 0 54.898-22.244 104.6-58.211 140.586l0.001-0.001c-75.136 75.197-206.259 75.136-281.236 0-36.022-35.984-58.304-85.716-58.304-140.652 0-109.797 89.008-198.804 198.804-198.804 0.035 0 0.070 0 0.105 0h-0.005zM104.709 852.27c25.437 25.383 60.55 41.079 99.328 41.079 77.666 0 140.627-62.961 140.627-140.627 0-38.888-15.785-74.089-41.296-99.546l-0.003-0.003c-25.751-24.678-60.762-39.871-99.321-39.871-38.609 0-73.659 15.232-99.471 40.015l0.049-0.046c-25.477 25.434-41.237 60.594-41.237 99.436 0 38.754 15.69 73.844 41.065 99.263l0.295 0.295zM853.187-57.242c109.82 0.021 198.839 89.053 198.839 198.876 0 54.895-22.241 104.595-58.204 140.581l0.001-0.001c-75.136 75.197-206.259 75.136-281.236 0-36.022-35.984-58.304-85.716-58.304-140.652 0-109.797 89.008-198.804 198.804-198.804 0.035 0 0.070 0 0.105 0h-0.005zM753.864 241.101c25.437 25.383 60.55 41.079 99.328 41.079 77.666 0 140.627-62.961 140.627-140.627 0-38.888-15.785-74.089-41.296-99.546l-0.003-0.003c-25.751-24.678-60.762-39.871-99.321-39.871-38.609 0-73.659 15.232-99.471 40.015l0.049-0.046c-25.474 25.434-41.232 60.592-41.232 99.43 0 38.757 15.692 73.849 41.070 99.268l0.295 0.295z" />
<glyph unicode="&#xe91b;" glyph-name="clock" data-tags="Horarios-y-tarifas-visitanos" d="M540.739 423.25c-9.225 3.723-15.617 12.603-15.617 22.975 0 0.070 0 0.139 0.001 0.208v-0.011 287.892h-53.304v-342.344l317.087-125.783 20.152 50.729zM511.939-58.767c-279.909 0.003-506.819 226.915-506.819 506.824 0 279.911 226.913 506.824 506.824 506.824 279.909 0 506.821-226.91 506.824-506.818v0c-0.321-279.785-227.044-506.509-506.799-506.829h-0.030zM511.939 912.123c-256.295-0.003-464.061-207.771-464.061-464.067s207.77-464.067 464.067-464.067 464.067 207.77 464.067 464.067v0c-0.297 256.18-207.892 463.775-464.044 464.072h-0.028z" />
<glyph unicode="&#xe91c;" glyph-name="arrow-left" data-tags="left-arrow" horiz-adv-x="1372" d="M14.935 473.482c3.155 8.014 7.605 14.876 13.159 20.671l-0.021-0.022 442.368 442.368c11.369 11.369 27.075 18.401 44.424 18.401 34.697 0 62.825-28.128 62.825-62.825 0-17.349-7.032-33.055-18.401-44.424v0l-335.985-335.36h1078.61c34.554 0 62.566-28.012 62.566-62.566s-28.012-62.566-62.566-62.566h-1078.63l335.985-335.36c11.372-11.37 18.406-27.079 18.406-44.431 0-34.7-28.13-62.83-62.83-62.83-17.348 0-33.054 7.031-44.424 18.399l-442.368 442.368c-10.94 11.56-17.667 27.205-17.667 44.422 0 8.561 1.663 16.733 4.684 24.211l-0.155-0.434z" />
<glyph unicode="&#xe91d;" glyph-name="arrow-left-cirlcle" data-tags="left-cirlcle" d="M304.916 442.322c1.007-2.557 2.427-4.747 4.2-6.597l141.192-141.192c3.61-3.519 8.548-5.69 13.994-5.69 11.076 0 20.055 8.979 20.055 20.055 0 5.446-2.171 10.385-5.694 13.998l0.004-0.004-107.249 107.049h344.305c11.028 0 19.968 8.94 19.968 19.968s-8.94 19.968-19.968 19.968h-344.305l107.249 107.039c3.519 3.61 5.69 8.548 5.69 13.994 0 11.076-8.979 20.055-20.055 20.055-5.446 0-10.385-2.171-13.998-5.694l-141.195-141.18c-3.492-3.69-5.639-8.684-5.639-14.18 0-2.733 0.531-5.341 1.495-7.729l-0.049 0.139zM1004.278 449.925c-0.198 272.87-221.448 493.999-494.346 493.999-203.416 0-378.137-122.861-454.002-298.425l-1.233-3.205c-24.637-56.777-38.969-122.904-38.969-192.379 0-273.020 221.327-494.347 494.347-494.347 203.545 0 378.358 123.017 454.147 298.759l1.231 3.208c24.546 56.477 38.826 122.263 38.826 191.384 0 0.353 0 0.706-0.001 1.059v-0.054zM1015.030 449.925c0-278.879-226.076-504.955-504.955-504.955s-504.955 226.076-504.955 504.955c0 278.879 226.076 504.955 504.955 504.955v0c278.879 0 504.955-226.076 504.955-504.955v0z" />
<glyph unicode="&#xe91e;" glyph-name="planet" data-tags="planetario-boleteria" horiz-adv-x="1408" d="M704.901-57.482c-0.114 0-0.248 0-0.383 0-103.772 0-199.931 32.594-278.799 88.103l1.539-1.027-9.979 6.897-11.556-3.405c-87.475-25.866-163.092-38.989-224.768-38.989-38.866 0-71.921 5.32-98.268 15.816-26.067 9.601-47.304 27.184-61.267 49.744l-0.296 0.514c-10.086 16.582-16.056 36.633-16.056 58.078 0 1.887 0.046 3.763 0.138 5.627l-0.010-0.263c1.896 29.699 9.906 57.133 22.778 81.611l-0.532-1.11c29.778 61.952 88.463 132.296 174.444 209.101l9.032 8.044-0.317 12.232c-0.087 3.763-0.123 7.788-0.123 12.646-0.005 277.699 221.793 503.624 494.423 503.624 0.137 0 0.299 0 0.462 0 103.766 0 199.915-32.613 278.756-88.147l-1.535 1.025 9.928-6.897 11.612 3.4c87.752 25.871 163.384 38.989 224.768 38.989 38.815 0 71.905-5.32 98.304-15.816 26.035-9.618 47.25-27.178 61.226-49.7l0.296-0.512c10.051-16.614 15.998-36.685 15.998-58.145 0-1.879-0.046-3.748-0.136-5.605l0.010 0.262c-1.909-29.693-9.913-57.119-22.764-81.601l0.533 1.115c-29.834-61.993-88.52-132.342-174.459-209.101l-9.016-8.044 0.307-12.186c0.118-3.753 0.169-7.767 0.169-12.646 0.005-277.704-221.804-503.634-494.459-503.634zM1135.596 416.63v0l-55.296-40.863c-69.44-51.788-148.593-103.383-230.919-150.026l-11.375-5.929c-76.119-43.986-167.485-88.751-261.882-127.657l-15.924-5.811-63.519-25.288 64.154-23.491c42.844-16.194 92.375-25.569 144.095-25.569s101.25 9.375 146.984 26.518l-2.889-0.949c47.222 17.622 87.993 41.508 123.791 71.185l-0.701-0.564c73.047 60.424 125.717 143.168 147.62 237.702l0.573 2.938 15.293 67.814zM220.16 337.551v0l-29.937-30.669c-90.496-92.713-132.961-173.404-110.797-210.58 16.082-26.906 63.734-32.553 100.864-32.553 47.179 0.936 92.476 6.968 135.985 17.569l-4.263-0.878 41.431 9.216-27.274 33.055c-40.689 48.928-72.626 106.782-92.413 170.006l-0.961 3.562-12.636 41.267zM704.891 880.271c-235.008 0-426.184-194.76-426.184-434.176 0-10.035 0.307-19.968 0.942-29.471l0.138-1.654 0.323-1.654c0.4-2.064 0.629-4.437 0.629-6.863 0-0.303-0.004-0.606-0.011-0.908l0.001 0.045-0.056-1.7 0.184-1.705c11.171-110.927 62.412-208.142 138.816-278.425l0.31-0.282 10.957-10.066 14.049 4.644c109.906 36.326 234.44 92.57 360.141 162.657 118.288 66.28 220.098 136.019 315.116 213.749l-3.82-3.030 11.551 9.508-2.391 14.899c-17.659 109.003-73.638 202.525-153.404 268.202l-0.749 0.598-1.505 1.285-1.731 1.024c-2.784 1.638-5.184 3.528-7.299 5.697l-0.007 0.007-1.413 1.475-1.608 1.239c-69.245 53-157.066 84.926-252.344 84.926-0.22 0-0.439 0-0.659-0.001h0.034zM1229.512 828.457c-47.178-0.935-92.477-6.964-135.988-17.559l4.265 0.878-41.431-9.216 27.29-33.024c40.661-48.922 72.593-106.752 92.409-169.944l0.965-3.568 12.641-41.288 29.942 30.664c90.506 92.733 132.925 173.425 110.756 210.57-16.087 26.87-63.718 32.507-100.833 32.507z" />
<glyph unicode="&#xe91f;" glyph-name="family" data-tags="plan-familiar-boleteria" horiz-adv-x="978" d="M167.665-58.552h-69.898c-24.089 0.131-43.566 19.689-43.566 43.796 0 0.047 0 0.094 0 0.141v-0.007 149.228l-9.349 0.85c-11.22 1.031-21.066 6.207-28.129 13.963l-0.031 0.035c-7.174 7.795-11.571 18.241-11.571 29.715 0 0.010 0 0.019 0 0.029v-0.001 220.006c0 77.363 59.028 140.288 131.584 140.288h30.95v-29.553h-30.95c-28.775-0.173-54.568-12.796-72.289-32.75l-0.087-0.1c-18.388-20.299-29.643-47.357-29.643-77.044 0-0.296 0.001-0.591 0.003-0.886v0.045-220.006c-0.001-0.046-0.001-0.1-0.001-0.155 0-7.782 6.257-14.103 14.015-14.207h35.036v-179.456c-0.001-0.046-0.001-0.1-0.001-0.155 0-7.781 6.254-14.1 14.009-14.207h69.918v-29.568zM169.574 588.058h-18.944c-35.571 0.168-64.364 28.945-64.558 64.494v38.418c0.148 35.584 28.966 64.387 64.541 64.512h18.956c35.587-0.104 64.408-28.925 64.512-64.502v-38.41c-0.121-33.117-25.069-60.369-57.195-64.12l-0.303-0.029c-2.070-0.232-4.469-0.364-6.9-0.364-0.039 0-0.077 0-0.116 0h0.006zM150.63 731.075c-22.032-0.29-39.815-18.073-40.105-40.077v-38.428c0.299-22.028 18.077-39.806 40.077-40.105h18.972c22.021 0.305 39.789 18.082 40.079 40.077v38.428c-0.296 22.015-18.064 39.783-40.051 40.079h-0.028zM575.882-58.537h-200.591c-24.713 0.151-44.688 20.219-44.688 44.953 0 0.061 0 0.123 0 0.184v-0.010 204.59h-18.529c-24.713 0.151-44.688 20.219-44.688 44.953 0 0.060 0 0.119 0 0.179v-0.009 283.433c0 0.122 0 0.267 0 0.412 0 25.265 5.301 49.293 14.852 71.030l-0.444-1.134c9.462 21.814 22.528 40.377 38.635 55.79l0.062 0.059c27.095 26.421 64.085 42.807 104.9 43.090h100.335c40.873-0.279 77.865-16.665 104.992-43.121l-0.032 0.031c16.166-15.477 29.238-34.038 38.292-54.756l0.426-1.093c9.091-20.618 14.382-44.659 14.382-69.935 0-0.131 0-0.262 0-0.393v0.020-283.433c0-0.050 0-0.11 0-0.17 0-24.734-19.975-44.802-44.673-44.953h-18.548v-204.585c0-0.053 0-0.117 0-0.18 0-24.732-19.972-44.799-44.668-44.953h-0.015zM425.446 659.43c-36.206-0.236-68.657-16.117-90.965-41.214l-0.109-0.125c-23.214-25.642-37.421-59.816-37.421-97.308 0-0.368 0.001-0.736 0.004-1.104v0.056-283.433c-0.001-0.063-0.001-0.137-0.001-0.212 0-8.399 6.741-15.223 15.108-15.358h48.141v-234.138c-0.001-0.066-0.002-0.144-0.002-0.222 0-8.395 6.736-15.218 15.098-15.358h200.584c8.375 0.14 15.111 6.963 15.111 15.358 0 0.078-0.001 0.156-0.002 0.234v-0.012 234.138h48.128c8.375 0.14 15.111 6.963 15.111 15.358 0 0.075-0.001 0.149-0.002 0.223v-0.011 283.433c0.003 0.318 0.004 0.694 0.004 1.071 0 37.481-14.203 71.645-37.521 97.403l0.111-0.124c-22.415 25.238-54.878 41.125-91.056 41.344h-0.039zM489.764 721.853h-26.665c-50.358 0.188-91.13 40.962-91.315 91.303v50.43c0.18 50.355 40.958 91.127 91.299 91.295h24.925c50.365-0.16 91.149-40.949 91.3-91.301v-50.426c-0.182-49.737-39.954-90.125-89.435-91.298l-0.109-0.002zM463.099 925.327c-34.078-0.044-61.69-27.663-61.722-61.739v-50.409c0.029-34.079 27.639-61.701 61.712-61.747h24.919c34.076 0.050 61.684 27.669 61.716 61.744v50.409c-0.035 34.076-27.642 61.693-61.712 61.742h-0.005zM794.342 688.87h-22.344c-44.633 0.159-80.772 36.299-80.932 80.917v45.296c0.157 44.627 36.302 80.76 80.919 80.896h22.357c44.615-0.157 80.739-36.281 80.896-80.881v-45.281c-0.136-44.63-36.269-80.775-80.881-80.932h-0.015zM771.999 866.427c-28.344-0.035-51.313-23-51.354-51.339v-45.27c0.035-28.348 23.006-51.319 51.35-51.354h22.347c28.339 0.041 51.302 23 51.348 51.334v45.285c-0.044 28.34-23.008 51.303-51.345 51.343h-0.004zM873.585-58.552h-99.241v29.568h99.277c8.134 0.135 14.675 6.76 14.675 14.913 0 0.073-0.001 0.145-0.002 0.218v-0.011 213.391h43.156c8.15 0.132 14.706 6.769 14.706 14.938 0 0.069 0 0.138-0.001 0.207v-0.010 259.374c0.002 0.28 0.003 0.612 0.003 0.944 0 34.531-13.092 66.004-34.582 89.727l0.101-0.113c-20.655 23.277-50.579 37.933-83.931 38.139h-53.403v29.548h53.366c27.452-0.055 53.035-8.009 74.61-21.709l-0.57 0.338c22.231-14.182 40.197-33.185 52.762-55.622l0.404-0.785c13.080-23.185 20.787-50.904 20.787-80.424 0-0.015 0-0.030 0-0.044v0.002-259.4c0-0.044 0-0.097 0-0.149 0-24.494-19.784-44.367-44.244-44.512h-13.592v-183.839c0-0.043 0-0.093 0-0.144 0-24.509-19.795-44.395-44.269-44.543h-0.014z" />
<glyph unicode="&#xe920;" glyph-name="Traveller-choise" data-tags="Traveller chiose" horiz-adv-x="1761" d="M881.869 944.64c-261.248 0-472.576-206.551-472.576-460.406s212.014-460.406 472.576-460.406 472.576 206.551 472.576 460.406-211.318 460.406-472.576 460.406zM881.869 74.47c-231.844 0-419.922 183.229-419.922 409.088s188.073 409.088 419.922 409.088 419.922-183.229 419.922-409.088-188.073-409.088-419.922-409.088zM776.55 452.255c0.013-0.453 0.020-0.986 0.020-1.521 0-32.117-26.036-58.153-58.153-58.153s-58.153 26.036-58.153 58.153c0 32.117 26.036 58.153 58.153 58.153 0 0 0 0 0.001 0v0c0.236 0.003 0.514 0.005 0.793 0.005 31.422 0 56.941-25.273 57.339-56.6v-0.038zM1102.776 452.255c0.013-0.453 0.020-0.986 0.020-1.521 0-32.117-26.036-58.153-58.153-58.153s-58.153 26.036-58.153 58.153c0 32.117 26.036 58.153 58.153 58.153 0 0 0 0 0.001 0v0c0.236 0.003 0.514 0.005 0.793 0.005 31.422 0 56.941-25.273 57.339-56.6v-0.038zM1154.765 570.189l53.345 56.632h-118.328c-58.482 39.242-130.463 62.63-207.908 62.63s-149.426-23.389-209.267-63.488l1.359 0.858h-118.318l53.325-56.632c-32.693-28.715-53.246-70.571-53.345-117.23v-0.018c0-87.951 73.18-159.232 163.456-159.232 0.374-0.003 0.816-0.005 1.259-0.005 42.293 0 80.8 16.209 109.648 42.754l-0.115-0.104 51.978-55.296 51.978 55.296c29.24-26.355 68.116-42.518 110.766-42.644h0.026c90.276 0 163.456 71.291 163.456 159.232-0.249 46.647-20.762 88.454-53.177 117.102l-0.168 0.146zM719.104 344.98c-60.867 0-110.111 47.974-110.111 107.274s49.239 107.274 110.111 107.274 110.111-47.974 110.111-107.274-49.234-107.274-110.111-107.274zM881.874 455.572c0 70.625-52.659 131.256-122.419 157.245 36.207 15.172 78.284 23.986 122.419 23.986s86.212-8.814 124.566-24.778l-2.147 0.792c-69.76-25.984-122.419-86.615-122.419-157.245zM1045.33 344.98c-60.867 0-110.111 47.974-110.111 107.274s49.244 107.274 110.111 107.274 110.111-47.974 110.111-107.274-49.239-107.274-110.111-107.274zM618.568-25.477s-57.446 43.31-160.717 54.636c-8.791 0.975-18.983 1.531-29.305 1.531-55.295 0-106.863-15.958-150.349-43.52l1.15 0.681s69.074-27.32 173.711-37.98c105.324-9.994 165.504 24.653 165.504 24.653zM458.537 62.474s-51.302 51.968-147.727 87.281c-95.744 35.328-188.759 13.312-188.759 13.312s58.819-54.636 161.403-92.616c101.888-37.315 175.104-7.997 175.104-7.997zM305.336 185.073s-30.090 71.291-110.111 143.252-179.866 84.618-179.866 84.618 36.25-77.312 121.052-153.247c85.504-76.621 168.924-74.624 168.924-74.624zM275.246 322.33s-10.24 76.621-67.707 166.574c-58.132 89.948-150.461 126.592-150.461 126.592s14.362-83.968 75.914-179.231c60.867-95.278 142.254-113.935 142.254-113.935zM278.666 506.22s-2.734 78.623-51.292 174.592-136.1 141.896-136.1 141.896 6.84-85.949 58.132-188.559c51.978-101.944 129.26-127.928 129.26-127.928zM507.776 115.103s-23.936 58.634-88.909 117.934-146.355 69.97-146.355 69.97 28.723-63.299 97.792-125.952c69.084-63.939 137.472-61.952 137.472-61.952zM671.232 27.827s-33.51 31.314-93.696 54.636c-24.466 9.337-52.761 14.744-82.319 14.744-12.706 0-25.179-0.999-37.344-2.923l1.345 0.175c29.375-23.592 63.312-43.171 100.024-57.115l2.56-0.854c64.287-24.653 109.425-8.663 109.425-8.663zM829.215-3.487c-22.058 7.806-47.497 12.316-73.989 12.316-4.287 0-8.546-0.118-12.774-0.351l0.588 0.026c-33.554-1.688-64.301-12.396-90.249-29.725l0.649 0.408c24.101-7.807 51.831-12.308 80.613-12.308 4.602 0 9.177 0.115 13.722 0.342l-0.639-0.025c54.712 1.997 82.068 29.317 82.068 29.317zM436.649 256.364s-10.926 62.633-62.234 133.258c-50.611 70.63-127.892 97.946-127.892 97.946s15.048-67.963 69.074-143.252c54.031-75.955 121.052-87.951 121.052-87.951zM372.362 446.925s12.288 63.299-8.192 147.917c-14.793 54.244-43.435 100.541-81.913 136.429l-0.17 0.157s-10.941-69.96 11.622-159.908c21.883-90.624 78.648-124.595 78.648-124.595zM1145.18-25.477s57.452 43.31 160.717 54.636c8.789 0.975 18.981 1.531 29.302 1.531 55.294 0 106.861-15.958 150.346-43.52l-1.15 0.681s-69.074-27.32-173.711-37.98c-104.637-9.994-165.504 24.653-165.504 24.653zM1305.897 62.474s51.292 51.968 147.722 87.286c95.744 35.328 188.759 13.312 188.759 13.312s-58.813-54.636-161.403-92.616c-101.888-37.315-175.104-7.997-175.104-7.997zM1459.098 185.073s30.090 71.291 110.111 143.252 179.866 84.618 179.866 84.618-36.25-77.312-121.052-153.247c-85.468-76.641-168.924-74.624-168.924-74.624zM1489.188 322.33s10.24 76.621 67.707 166.574c58.132 89.948 150.461 126.592 150.461 126.592s-14.336-83.968-75.914-179.231-142.254-113.935-142.254-113.935zM1485.082 506.22s2.734 78.623 51.292 174.592 136.1 141.896 136.1 141.896-6.84-85.949-58.132-188.559c-51.292-101.944-129.26-127.928-129.26-127.928zM1255.972 115.103s23.936 58.634 88.909 117.934 146.355 69.97 146.355 69.97-28.723-63.299-97.792-125.952c-69.079-63.939-137.472-61.952-137.472-61.952zM1093.202 27.827s33.51 31.314 93.696 54.636c24.463 9.335 52.755 14.74 82.309 14.74 12.71 0 25.186-1 37.354-2.925l-1.346 0.175c-29.375-23.592-63.312-43.171-100.024-57.115l-2.56-0.854c-64.287-24.653-109.425-8.663-109.425-8.663zM934.538-3.487c22.058 7.806 47.497 12.316 73.99 12.316 4.286 0 8.545-0.118 12.773-0.351l-0.588 0.026c33.554-1.689 64.301-12.396 90.25-29.725l-0.65 0.408c-24.101-7.807-51.831-12.308-80.613-12.308-4.602 0-9.177 0.115-13.722 0.342l0.639-0.025c-54.712 1.997-82.068 29.317-82.068 29.317zM1327.785 256.364s10.941 62.633 62.234 133.258c50.611 70.625 127.892 97.946 127.892 97.946s-15.022-67.963-69.074-143.252c-54.712-75.955-121.052-87.951-121.052-87.951zM1391.391 446.925s-12.288 63.299 8.192 147.917c14.793 54.244 43.435 100.541 81.913 136.429l0.17 0.157s10.941-69.96-11.628-159.908c-21.888-90.624-78.648-124.595-78.648-124.595zM881.874-0.824c13.702-0.369 24.668-11.564 24.668-25.32 0-13.989-11.34-25.329-25.329-25.329s-25.329 11.34-25.329 25.329c0 0.001 0 0.001 0 0.002v0c0.189 14.024 11.603 25.321 25.654 25.321 0.118 0 0.235-0.001 0.353-0.002h-0.018z" />
<glyph unicode="&#xe921;" glyph-name="microbiology-udea" data-tags="Microbiologia udea" horiz-adv-x="1019" d="M174.7 780.216c85.022 84.733 202.324 137.122 331.863 137.122 44.705 0 87.952-6.239 128.919-17.895l-3.315 0.806c1.301-0.375 2.795-0.591 4.339-0.591 8.959 0 16.222 7.263 16.222 16.222 0 7.415-4.975 13.668-11.769 15.603l-0.114 0.028c-40.384 11.713-86.773 18.45-134.736 18.45-276.798 0-501.187-224.389-501.187-501.187 0-47.962 6.737-94.351 19.317-138.271l-0.866 3.536c1.966-6.9 8.209-11.869 15.615-11.878h0.001c1.551 0.002 3.051 0.217 4.474 0.617l-0.117-0.028c6.907 1.966 11.88 8.218 11.88 15.632 0 1.543-0.215 3.036-0.618 4.45l0.028-0.114c-10.865 37.672-17.113 80.944-17.113 125.675 0 129.529 52.396 246.82 137.148 331.835l-0.012-0.012zM385.531-8.146c-1.301 0.375-2.795 0.591-4.339 0.591-8.959 0-16.222-7.263-16.222-16.222 0-7.415 4.975-13.668 11.769-15.603l0.114-0.028c40.38-11.71 86.763-18.445 134.72-18.445 276.809 0 501.207 224.398 501.207 501.207 0 47.97-6.739 94.366-19.322 138.292l0.867-3.536c-1.963 6.908-8.216 11.883-15.631 11.883-8.959 0-16.222-7.263-16.222-16.222 0-1.544 0.216-3.038 0.619-4.454l-0.028 0.114c10.96-37.779 17.264-81.175 17.264-126.043 0-258.887-209.869-468.756-468.756-468.756-44.869 0-88.265 6.304-129.351 18.074l3.308-0.811zM625.71 211.149l52.465-90.854c2.857-4.882 8.075-8.108 14.047-8.108 8.959 0 16.221 7.262 16.221 16.221 0 2.987-0.807 5.786-2.216 8.189l0.041-0.076-52.465 90.844 116.91 202.455h84.214c8.961 0 16.225 7.264 16.225 16.225s-7.264 16.225-16.225 16.225h-84.214l-116.9 202.45 52.454 90.854c1.367 2.327 2.174 5.126 2.174 8.113 0 8.961-7.264 16.226-16.226 16.226-5.974 0-11.194-3.229-14.010-8.036l-0.041-0.077-52.439-90.854h-233.769l-52.48 90.854c-2.858 4.884-8.078 8.113-14.052 8.113-8.961 0-16.226-7.264-16.226-16.226 0-2.987 0.807-5.785 2.215-8.189l-0.041 0.077 52.465-90.854-116.879-202.45h-84.198c-8.961 0-16.225-7.264-16.225-16.225s7.264-16.225 16.225-16.225h84.214l116.879-202.424-52.454-90.885c-1.367-2.327-2.174-5.126-2.174-8.113 0-8.961 7.264-16.226 16.226-16.226 5.974 0 11.194 3.229 14.010 8.036l0.041 0.077 52.434 90.854zM391.956 648.509h233.764l116.91-202.45-116.895-202.47h-233.779l-116.9 202.45zM443.694 317.88h130.294c0.002 0 0.005 0 0.007 0 5.972 0 11.19 3.228 14.006 8.034l0.041 0.077 65.147 112.85c1.366 2.327 2.173 5.126 2.173 8.113s-0.807 5.785-2.214 8.189l0.041-0.077-65.157 112.865c-2.853 4.882-8.069 8.11-14.038 8.11-0.006 0-0.011 0-0.017 0h-130.283c-0.002 0-0.005 0-0.007 0-5.972 0-11.19-3.228-14.006-8.034l-0.041-0.077-65.147-112.86c-1.366-2.327-2.173-5.126-2.173-8.113s0.807-5.785 2.214-8.189l-0.041 0.077 65.147-112.85c2.852-4.885 8.070-8.115 14.041-8.115 0.005 0 0.009 0 0.014 0h-0.001zM453.053 543.59h111.58l55.808-96.635-55.808-96.599h-111.58l-55.808 96.625z" />
<glyph unicode="&#xe922;" glyph-name="best-aquarium" data-tags="Mejor acuario" horiz-adv-x="1275" d="M185.467 570.353c-0.195 3.942-0.394 5.883-0.394 7.823q-0.717 110.495-1.326 221.030c0.123 4.462 1.148 8.655 2.898 12.444l-0.082-0.197c6.072 14.7 15.179 27.069 26.607 36.793l0.135 0.112c8.711 8.18 20.468 13.205 33.399 13.205 1.651 0 3.283-0.082 4.892-0.242l-0.203 0.016c19.126-2.78 34.149-17.448 37.43-36.158l0.039-0.266c1.021-3.146 1.61-6.765 1.61-10.523 0-5.375-1.205-10.469-3.36-15.025l0.091 0.214c-33.331-74.752-66.15-149.724-99.169-224.604-0.394-0.901-0.957-1.746-2.504-4.531zM1090.586 572.124q-27.571 62.321-55.117 124.616c-15.427 34.908-30.541 69.975-46.377 104.663-1.552 3.743-2.453 8.090-2.453 12.648 0 4.371 0.829 8.548 2.338 12.383l-0.080-0.23c3.85 20.398 21.529 35.619 42.763 35.619 11.070 0 21.174-4.137 28.849-10.949l-0.045 0.039c14.383-11.198 25.462-26.004 31.948-43.071l0.227-0.679c0.576-1.644 0.909-3.539 0.909-5.512 0-0.403-0.014-0.802-0.041-1.198l0.003 0.053q-0.635-112.399-1.434-224.799c0-1.183-0.195-2.365-0.307-3.517h-1.208zM801.321-56.197l223.084 97.085c5.229 1.711 11.247 2.697 17.495 2.697 19.030 0 35.924-9.151 46.519-23.292l0.108-0.151c3.38-5.783 5.376-12.733 5.376-20.149 0-6.658-1.608-12.939-4.458-18.478l0.106 0.227c-7.975-16.325-20.599-29.34-36.141-37.587l-0.452-0.219c-1.706-0.828-3.712-1.312-5.83-1.312-0.237 0-0.472 0.006-0.705 0.018l0.033-0.001q-120.699-0.471-241.449-0.753c-1.274 0.058-2.465 0.188-3.632 0.388l0.171-0.024-0.195 1.536zM475.745-58.112h-7.168c-78.228 0.225-156.452 0.394-234.68 0.901-5.43 0.212-10.443 1.828-14.736 4.493l0.129-0.074c-12.725 7.516-22.925 18.089-29.785 30.737l-0.207 0.418c-3.858 6.103-6.148 13.53-6.148 21.493 0 18.44 12.281 34.013 29.111 38.983l0.287 0.073c6.75 2.851 14.599 4.507 22.834 4.507 8.888 0 17.326-1.93 24.917-5.393l-0.376 0.154c69.473-30.986 139.387-61.020 209.178-91.423 2.278-0.983 4.562-2.048 6.84-3.072l-0.169-1.746zM1119.155 378.962v6.564q0.717 130.893 1.577 261.791c0.161 4.352 1.675 8.322 4.132 11.533l-0.036-0.049c7.853 9.609 19.705 15.694 32.978 15.694 9.014 0 17.372-2.806 24.249-7.593l-0.139 0.092c18.539-12.33 30.592-33.132 30.597-56.749v-0.001c0.191-2.095 0.3-4.532 0.3-6.994 0-12.316-2.724-23.995-7.601-34.469l0.21 0.503c-27.781-61.563-54.784-123.464-82.14-185.252-0.814-1.802-1.772-3.548-2.647-5.32l-1.464 0.251zM156.339 378.798q-18.115 40.96-36.173 81.92-25.882 58.588-51.825 117.125c-2.736 7.777-4.317 16.743-4.317 26.079 0 24.198 10.62 45.915 27.452 60.746l0.089 0.077c7.444 6.136 17.079 9.857 27.582 9.857 13.561 0 25.673-6.202 33.654-15.925l0.061-0.076 0.645-0.814c1.812-2.461 2.945-5.52 3.071-8.838l0.001-0.030q0.973-133.555 1.536-267.080c0-0.927-0.138-1.859-0.225-2.816l-1.464-0.251zM966.323 42.609c2.816 3.041 3.942 4.531 5.294 5.883l174.536 174.525c7.034 8.84 17.792 14.458 29.861 14.458 4.7 0 9.202-0.852 13.358-2.41l-0.263 0.086c15.077-6.136 25.512-20.675 25.512-37.652 0-0.312-0.004-0.622-0.011-0.932l0.001 0.046c0.098-1.277 0.154-2.766 0.154-4.268 0-10.714-2.846-20.763-7.823-29.434l0.153 0.288c-10.901-21.526-28.872-38.148-50.8-47.053l-0.656-0.235c-60.38-22.83-120.422-46.643-180.577-70.062l-8.704-3.348zM308.849 43.428l-65.756 25.641q-65.659 25.631-131.287 51.236c-29.13 14.676-48.763 44.346-48.763 78.602 0 0.888 0.013 1.772 0.039 2.654l-0.003-0.129c1.080 15.295 10.736 28.093 24.147 33.696l0.26 0.096c3.998 1.631 8.637 2.577 13.497 2.577 10.023 0 19.107-4.026 25.721-10.548l-0.004 0.004c4.015-3.543 7.69-7.155 11.165-10.954l0.099-0.11 166.072-166.093c1.898-1.649 3.982-3.233 6.168-4.675l0.222-0.138-1.633-1.94zM1077.775 198.313l41.324 107.008q21.279 55.188 42.588 110.372c8.093 22.028 28.006 37.853 51.852 39.875l0.223 0.015c0.075 0 0.163 0.001 0.251 0.001 20.36 0 37.279-14.736 40.673-34.124l0.036-0.248c1.156-5.456 1.818-11.726 1.818-18.15 0-10.282-1.696-20.168-4.824-29.394l0.19 0.645c-0.701-1.946-1.809-3.597-3.228-4.919l-0.008-0.007q-83.702-84.47-167.516-168.914c-0.953-0.783-2.018-1.57-3.122-2.301l-0.144-0.090zM196.506 198.134c-1.334 2.57-2.793 4.783-4.451 6.827l0.058-0.074q-80.225 80.988-160.451 161.992c-3.674 4.052-6.419 9.016-7.857 14.508l-0.054 0.242c-2.050 6.571-3.23 14.126-3.23 21.957s1.181 15.386 3.374 22.497l-0.143-0.54c4.718 17.836 20.71 30.77 39.724 30.77 3.64 0 7.169-0.474 10.529-1.363l-0.286 0.064c3.209-0.853 5.997-1.939 8.625-3.291l-0.239 0.112c14.643-6.288 26.018-17.845 31.918-32.228l0.144-0.396c28.375-72.259 56.074-144.773 83.968-217.201 0.187-0.605 0.327-1.314 0.391-2.044l0.003-0.040-1.915-1.772zM283.146 732.969c0.814 2.278 1.536 4.608 2.478 6.84q42.225 100.352 84.224 200.791c1.756 5.205 6.594 8.886 12.291 8.886 0.242 0 0.483-0.007 0.721-0.020l-0.033 0.001c1.063 0.169 2.289 0.265 3.537 0.265 11.033 0 20.305-7.541 22.943-17.75l0.036-0.164c3.315-9.098 5.233-19.6 5.233-30.551 0-24.366-9.493-46.515-24.982-62.951l0.043 0.046c-33.582-35.046-68.204-69.12-102.4-103.588-0.867-0.851-1.785-1.662-2.744-2.423l-0.072-0.055-1.352 0.676zM992.625 732.129c-1.070 0.983-2.196 1.94-3.236 2.985-34.002 34.304-68.46 68.096-101.985 103.055-15.504 16.329-25.040 38.454-25.040 62.808 0 11.232 2.029 21.99 5.739 31.929l-0.206-0.63c3.155 10.183 12.489 17.451 23.521 17.451 2.556 0 5.020-0.39 7.338-1.114l-0.174 0.047c0.847-0.243 1.527-0.482 2.191-0.753l-0.143 0.052c2.862-1.692 5.028-4.302 6.114-7.419l0.030-0.097q41.252-97.495 82.14-195.133 2.56-6.144 5.12-12.288l-1.536-0.901zM682.701 585.047c-44.764 23.598-96.679 42.912-151.232 55.28l-4.299 0.82 4.224-4.869c8.785-21.62 17.293-48.195 23.948-75.495l0.853-4.141c-99.763-42.476-165.996-117.156-167.209-117.156-5.978-7.381-15.041-12.061-25.196-12.061-7.637 0-14.657 2.647-20.19 7.073l0.064-0.050-83.092 70.374c6.001-28.392 9.437-61.015 9.437-94.441s-3.436-66.049-9.974-97.535l0.537 3.094 83.098 70.369c22.661 17.623 40.284 0 55.398-15.114 60.729 105.268 172.683 174.984 300.921 174.984 10.205 0 20.307-0.442 30.288-1.306l-1.297 0.091c6.236-0.745 11.799-3.16 16.364-6.779l-0.067 0.051 0.282 0.056-0.087-0.225-0.195 0.169c-98.493-12.247-249.011-128.276-293.315-211.968 67.853-53.597 154.625-85.972 248.959-85.972 23.231 0 46.003 1.963 68.16 5.733l-2.382-0.335-0.113 0.195c-0.138 0.195-0.251 0.42-0.42 0.62l0.031 0.282 0.394-0.901 0.169-0.195h-0.056l0.056-0.113c73.047 20.157 146.068 68.009 221.619 163.686-105.196 136.018-211.937 177.761-305.664 175.79zM905.267 376.673c-0.387-0.012-0.842-0.019-1.299-0.019-24.488 0-44.339 19.851-44.339 44.339s19.851 44.339 44.339 44.339c24.488 0 44.339-19.851 44.339-44.339 0-12.182-4.913-23.217-12.866-31.231l0.003 0.003c-7.751-7.776-18.354-12.707-30.106-13.090l-0.072-0.002z" />
<glyph unicode="&#xe923;" glyph-name="cart" data-tags="Carrito" horiz-adv-x="1019" d="M996.654 718.239c-18.304 24.821-47.246 40.883-79.964 41.404l-0.082 0.001h-649.999l-20.28 82.816c-11.74 48.128-52.301 81.695-99.256 81.695h-108.867c-18.465-0.896-33.096-16.085-33.096-34.691s14.632-33.795 33.016-34.687l0.080-0.003h108.867c16.71-0.308 30.588-12.072 34.126-27.753l0.045-0.238 130.202-543.872c11.74-48.128 52.301-81.695 99.256-81.695h425.861c48.749 0.645 89.259 35.14 99.134 81.019l0.122 0.675 80.046 344.704c1.96 7.638 3.085 16.407 3.085 25.439 0 24.667-8.393 47.374-22.478 65.421l0.177-0.236zM950.779 643.267l-80.051-344.689c-3.585-15.91-17.454-27.666-34.122-27.975h-425.91c-16.7 0.313-30.567 12.068-34.11 27.737l-0.045 0.238-92.856 390.569h632.919c11.41-0.199 21.459-5.849 27.68-14.449l0.070-0.102c4.721-6.080 7.568-13.82 7.568-22.225 0-3.237-0.422-6.376-1.215-9.364l0.057 0.254zM430.321 163.922c-53.552-0.003-96.963-43.416-96.963-96.968 0-53.554 43.414-96.968 96.968-96.968s96.968 43.414 96.968 96.968c0 0.002 0 0.004 0 0.005v0c-0.298 53.434-43.537 96.671-96.945 96.962h-0.028zM430.321 28.728c-21.114 0-38.231 17.117-38.231 38.231s17.117 38.231 38.231 38.231c21.114 0 38.231-17.117 38.231-38.231v0c-0.435-20.937-17.294-37.796-38.19-38.23l-0.041-0.001zM827.904 163.922c-0.002 0-0.003 0-0.005 0-53.554 0-96.968-43.414-96.968-96.968s43.414-96.968 96.968-96.968c53.554 0 96.968 43.414 96.968 96.968 0 0.002 0 0.004 0 0.006v0c-0.297 53.431-43.532 96.665-96.934 96.962h-0.028zM827.904 28.728c-21.114 0-38.231 17.117-38.231 38.231s17.117 38.231 38.231 38.231c21.114 0 38.231-17.117 38.231-38.231v0c-0.435-20.937-17.294-37.796-38.19-38.23l-0.041-0.001z" />
<glyph unicode="&#xe924;" glyph-name="plus" data-tags="Más- secciones" horiz-adv-x="1019" d="M1013.76 393.088h-1013.76v109.824h1013.76zM561.792-58.88h-109.824v1013.76h109.824z" />
<glyph unicode="&#xe925;" glyph-name="plus-b" data-tags="Más-button" horiz-adv-x="1019" d="M1028.28 392.064h-1032.561v111.872h1032.561zM1084.206 336.123h-1144.417v223.744h1144.417zM51.661 448.005v0zM567.941-68.28h-111.872v1032.561h111.872zM623.882-124.206h-223.744v1144.417h223.744z" />
<glyph unicode="&#xe926;" glyph-name="eye" data-tags="Ojo-ver info shows" horiz-adv-x="1377" d="M160.343 408.161c35.75-55.137 73.402-103.152 114.886-147.54l-0.552 0.596c122.312-130.442 261.903-207.452 416.527-207.452s294.211 77.015 416.507 207.483c40.934 43.791 78.586 91.806 111.878 142.921l2.457 4.023c9.175 14.218 17.336 27.581 24.428 39.839-7.091 12.257-15.247 25.6-24.428 39.839-35.75 55.137-73.402 103.152-114.887 147.541l0.552-0.597c-122.317 130.417-261.924 207.432-416.507 207.432s-294.211-77.015-416.512-207.478c-40.932-43.79-78.585-91.805-111.877-142.92l-2.458-4.024c-9.175-14.218-17.336-27.581-24.428-39.839 7.081-12.242 15.237-25.58 24.412-39.823zM21.304 473.185c15.744 30.218 30.488 54.999 46.401 78.934l-1.975-3.158c39.63 61.090 81.382 114.293 127.388 163.466l-0.602-0.65c141.691 151.132 308.326 243.082 498.688 243.082s357.002-91.945 498.688-243.082c45.404-48.523 87.155-101.725 124.064-158.37l2.717-4.446c13.937-20.775 28.682-45.555 42.178-71.097l2.254-4.679c3.751-7.339 5.949-16.010 5.949-25.193s-2.198-17.853-6.096-25.513l0.148 0.32c-15.747-30.219-30.492-54.999-46.407-78.935l1.975 3.159c-39.628-61.091-81.379-114.293-127.384-163.466l0.602 0.65c-141.716-151.137-308.357-243.082-498.688-243.082s-357.007 91.945-498.688 243.082c-45.404 48.523-87.155 101.726-124.065 158.371l-2.716 4.445c-13.938 20.776-28.683 45.556-42.178 71.098l-2.253 4.678c-3.752 7.341-5.951 16.013-5.951 25.198s2.199 17.857 6.099 25.518l-0.148-0.32zM691.2 222.725c-124.419 0-225.28 100.861-225.28 225.28s100.861 225.28 225.28 225.28c124.419 0 225.28-100.861 225.28-225.28v0c0-124.419-100.861-225.28-225.28-225.28v0zM691.2 335.365c62.209 0 112.64 50.431 112.64 112.64s-50.431 112.64-112.64 112.64c-62.209 0-112.64-50.431-112.64-112.64v0c0-62.209 50.431-112.64 112.64-112.64v0z" />
</font>
</defs>
</svg>
